<?xml version="1.0" encoding="UTF-8" standalone="no"?>
<!-- Created with Inkscape (http://www.inkscape.org/) -->

<svg
   xmlns:osb="http://www.openswatchbook.org/uri/2009/osb"
   xmlns:dc="http://purl.org/dc/elements/1.1/"
   xmlns:cc="http://creativecommons.org/ns#"
   xmlns:rdf="http://www.w3.org/1999/02/22-rdf-syntax-ns#"
   xmlns:svg="http://www.w3.org/2000/svg"
   xmlns="http://www.w3.org/2000/svg"
   xmlns:xlink="http://www.w3.org/1999/xlink"
   xmlns:sodipodi="http://sodipodi.sourceforge.net/DTD/sodipodi-0.dtd"
   xmlns:inkscape="http://www.inkscape.org/namespaces/inkscape"
   width="96"
   height="96"
   id="svg2"
   version="1.1"
   inkscape:version="0.48.3.1 r9886"
   sodipodi:docname="New document 1">
  <defs
     id="defs4">
    <pattern
       inkscape:collect="always"
       xlink:href="#pattern5065"
       id="pattern5085"
       patternTransform="matrix(0.19266269,0,0,0.18620174,41.975063,994.66003)" />
    <pattern
       inkscape:collect="always"
       xlink:href="#pattern4290"
       id="pattern5026"
       patternTransform="matrix(0.43806958,0,0,0.43341105,-1008.6425,94.8924)" />
    <linearGradient
       id="linearGradient4219">
      <stop
         style="stop-color:#595959;stop-opacity:1;"
         offset="0"
         id="stop4221" />
      <stop
         style="stop-color:#b3b3b3;stop-opacity:1;"
         offset="1"
         id="stop4223" />
    </linearGradient>
    <linearGradient
       id="linearGradient4183">
      <stop
         style="stop-color:#d9d9d9;stop-opacity:1;"
         offset="0"
         id="stop4185" />
      <stop
         style="stop-color:#ead3b5;stop-opacity:1;"
         offset="1"
         id="stop4187" />
    </linearGradient>
    <linearGradient
       id="linearGradient3946">
      <stop
         style="stop-color:#abb7dd;stop-opacity:1;"
         offset="0"
         id="stop3948" />
      <stop
         style="stop-color:#98a7d5;stop-opacity:1;"
         offset="1"
         id="stop3950" />
    </linearGradient>
    <linearGradient
       osb:paint="gradient"
       id="linearGradient3848-8">
      <stop
         id="stop3850-8"
         offset="0"
         style="stop-color:#e5e5e5;stop-opacity:1;" />
      <stop
         id="stop3852-8"
         offset="1"
         style="stop-color:#787878;stop-opacity:1;" />
    </linearGradient>
    <linearGradient
       y2="1047.3623"
       x2="49.994812"
       y1="962.36224"
       x1="49.994812"
       gradientTransform="matrix(0.99813472,0,0,0.99999998,0.09844379,-5.632684e-5)"
       gradientUnits="userSpaceOnUse"
       id="linearGradient4286"
       xlink:href="#linearGradient3848-8"
       inkscape:collect="always" />
    <linearGradient
       osb:paint="gradient"
       id="linearGradient3848">
      <stop
         id="stop3850"
         offset="0"
         style="stop-color:#f6f6f6;stop-opacity:1;" />
      <stop
         id="stop3852"
         offset="1"
         style="stop-color:#d7d7d7;stop-opacity:1;" />
    </linearGradient>
    <linearGradient
       gradientUnits="userSpaceOnUse"
       y2="502.36218"
       x2="300"
       y1="992.36218"
       x1="300"
       id="linearGradient3854"
       xlink:href="#linearGradient3848"
       inkscape:collect="always" />
    <linearGradient
       gradientUnits="userSpaceOnUse"
       y2="962.37634"
       x2="73.645119"
       y1="962.37634"
       x1="23.027079"
       id="linearGradient3899"
       xlink:href="#linearGradient3893"
       inkscape:collect="always" />
    <linearGradient
       gradientTransform="matrix(0.22727271,0,0,0.23083096,108.90909,185.84504)"
       id="greenFade-1"
       gradientUnits="userSpaceOnUse"
       x1="72"
       y1="225"
       x2="118"
       y2="149">
      <stop
         style="stop-color:#388c41;stop-opacity:1;"
         offset="0"
         stop-color="#388b41"
         id="stop17-8" />
      <stop
         style="stop-color:#91d38f;stop-opacity:1;"
         offset="1"
         stop-color="#4cb749"
         id="stop19-2" />
    </linearGradient>
    <linearGradient
       gradientTransform="matrix(0.22727271,0,0,0.23083096,108.90909,185.84504)"
       id="yellowShadow-5"
       gradientUnits="userSpaceOnUse"
       x1="139"
       y1="179"
       x2="147"
       y2="100">
      <stop
         offset="0%"
         stop-color="black"
         stop-opacity=".15"
         id="stop41-2" />
      <stop
         offset="30%"
         stop-color="black"
         stop-opacity=".06"
         id="stop43-9" />
      <stop
         offset="100%"
         stop-color="black"
         stop-opacity=".03"
         id="stop45-7" />
    </linearGradient>
    <linearGradient
       gradientTransform="matrix(0.22727271,0,0,0.23083096,108.90909,185.84504)"
       id="greenShadow-3"
       gradientUnits="userSpaceOnUse"
       x1="164"
       y1="161"
       x2="109"
       y2="217">
      <stop
         offset="0%"
         stop-color="black"
         stop-opacity=".15"
         id="stop34-6" />
      <stop
         offset="30%"
         stop-color="black"
         stop-opacity=".06"
         id="stop36-5" />
      <stop
         offset="100%"
         stop-color="black"
         stop-opacity=".03"
         id="stop38-8" />
    </linearGradient>
    <linearGradient
       gradientTransform="matrix(0.22727271,0,0,0.23083096,108.90909,185.84504)"
       id="redShadow-6"
       gradientUnits="userSpaceOnUse"
       x1="80"
       y1="140"
       x2="80"
       y2="60">
      <stop
         offset="0%"
         stop-color="black"
         stop-opacity=".15"
         id="stop27-4" />
      <stop
         offset="30%"
         stop-color="black"
         stop-opacity=".06"
         id="stop29-9" />
      <stop
         offset="100%"
         stop-color="black"
         stop-opacity=".03"
         id="stop31-5" />
    </linearGradient>
    <linearGradient
       gradientTransform="matrix(0.22727271,0,0,0.23083096,108.90909,185.84504)"
       id="redFade-8"
       gradientUnits="userSpaceOnUse"
       x1="128"
       y1="16"
       x2="128"
       y2="107">
      <stop
         style="stop-color:#f27f70;stop-opacity:1;"
         offset="0"
         stop-color="#f06b59"
         id="stop12-9" />
      <stop
         offset="100%"
         stop-color="#df2227"
         id="stop14-6" />
    </linearGradient>
    <linearGradient
       gradientUnits="userSpaceOnUse"
       id="blueFade-7"
       x1="-40.5"
       y1="-40.5"
       x2="-40.5"
       y2="41.5">
      <stop
         style="stop-color:#505050;stop-opacity:1;"
         offset="0"
         stop-color="#81b4e0"
         id="stop7-4" />
      <stop
         style="stop-color:#b1b1b1;stop-opacity:1;"
         offset="1"
         stop-color="#0c5a94"
         id="stop9-2" />
    </linearGradient>
    <radialGradient
       gradientUnits="userSpaceOnUse"
       r="41"
       fy="0.5"
       fx="0.5"
       cy="0.5"
       cx="0.5"
       id="radialGradient4820"
       xlink:href="#blueFade-7"
       inkscape:collect="always" />
    <linearGradient
       gradientTransform="matrix(0.22727271,0,0,0.23083096,108.90909,185.84504)"
       id="yellowFade-9"
       gradientUnits="userSpaceOnUse"
       x1="187"
       y1="220"
       x2="138"
       y2="102">
      <stop
         style="stop-color:#eecd74;stop-opacity:1;"
         offset="0"
         stop-color="#e4b022"
         id="stop22-3" />
      <stop
         offset="30%"
         stop-color="#fcd209"
         id="stop24-9" />
    </linearGradient>
    <linearGradient
       inkscape:collect="always"
       xlink:href="#linearGradient4578"
       id="linearGradient3229"
       gradientUnits="userSpaceOnUse"
       gradientTransform="matrix(1.023708,0,0,0.94343802,-90.859115,955.30313)"
       x1="47.921329"
       y1="89.668793"
       x2="47.921329"
       y2="4.7880402" />
    <linearGradient
       id="linearGradient4578">
      <stop
         style="stop-color:#969696;stop-opacity:1;"
         offset="0"
         id="stop4580" />
      <stop
         style="stop-color:#eeeeee;stop-opacity:1;"
         offset="1"
         id="stop4582" />
    </linearGradient>
    <linearGradient
       gradientTransform="translate(-267.4129,103.12896)"
       y2="4.7880402"
       x2="47.921329"
       y1="89.668793"
       x1="47.921329"
       gradientUnits="userSpaceOnUse"
       id="linearGradient3787"
       xlink:href="#linearGradient4578"
       inkscape:collect="always" />
    <linearGradient
       id="linearGradient3962">
      <stop
         id="stop3964"
         offset="0"
         style="stop-color:#939393;stop-opacity:1;" />
      <stop
         style="stop-color:#939393;stop-opacity:1;"
         offset="0.5"
         id="stop3970" />
      <stop
         id="stop3966"
         offset="1"
         style="stop-color:#939393;stop-opacity:1;" />
    </linearGradient>
    <linearGradient
       gradientUnits="userSpaceOnUse"
       y2="53.83913"
       x2="83"
       y1="53.83913"
       x1="48"
       id="linearGradient3968"
       xlink:href="#linearGradient3962"
       inkscape:collect="always" />
    <linearGradient
       id="linearGradient3839">
      <stop
         id="stop3841"
         offset="0"
         style="stop-color:#0090d1;stop-opacity:1;" />
      <stop
         id="stop3843"
         offset="1"
         style="stop-color:#54c8ff;stop-opacity:1;" />
    </linearGradient>
    <linearGradient
       id="linearGradient3893">
      <stop
         id="stop3895"
         offset="0"
         style="stop-color:#3d3d3d;stop-opacity:1;" />
      <stop
         id="stop3897"
         offset="1"
         style="stop-color:#a5a5a5;stop-opacity:0;" />
    </linearGradient>
    <linearGradient
       id="linearGradient3905">
      <stop
         id="stop3907"
         offset="0"
         style="stop-color:#ffffff;stop-opacity:0;" />
      <stop
         id="stop3909"
         offset="1"
         style="stop-color:#000000;stop-opacity:1;" />
    </linearGradient>
    <radialGradient
       inkscape:collect="always"
       xlink:href="#linearGradient4219"
       id="radialGradient4225"
       cx="42.717976"
       cy="1114.3312"
       fx="42.717976"
       fy="1114.3312"
       r="10.94132"
       gradientTransform="matrix(1.3576139,0,0,1.9467453,-14.233797,-996.19597)"
       gradientUnits="userSpaceOnUse" />
    <pattern
       patternUnits="userSpaceOnUse"
       width="59.29988"
       height="59.90432"
       patternTransform="translate(181.35006,879.41002)"
       id="pattern4290">
      <path
         sodipodi:nodetypes="ccccccc"
         inkscape:connector-curvature="0"
         id="path3980-27"
         d="M 6.83311,22.46915 17.8742,38.29144 C 12.35365,30.38024 -0.65941,28.30406 8.80508,8.72305 l 9.4614,-6.50325 -0.47409,2.33805 0.0818,33.73359 z"
         style="fill:#adbfd4;fill-opacity:1;stroke:none" />
      <path
         sodipodi:nodetypes="ccccccc"
         inkscape:connector-curvature="0"
         id="path3980-0-58"
         d="m 5.67529,31.93584 16.23419,10.426 C 13.79235,37.14884 0.96906,40.18424 2.2644,18.47445 l 6.27227,-9.61607 0.45192,2.34243 12.92089,31.16103 z"
         style="fill:#5a5a5a;fill-opacity:1;stroke:none" />
      <path
         sodipodi:nodetypes="ccccccc"
         inkscape:connector-curvature="0"
         id="path3980-0-8-7"
         d="m 44.9687,11.27689 -18.84343,4.1443 C 35.54701,13.34901 42.44589,2.12155 56.91323,18.36002 L 59.29988,29.59004 57.32133,28.25718 26.12527,15.4212 z"
         style="fill:#7081c9;fill-opacity:1;stroke:none" />
      <path
         sodipodi:nodetypes="ccccccc"
         inkscape:connector-curvature="0"
         id="path3980-0-89-9"
         d="M 36.98798,6.85542 21.02822,17.69684 C 29.00811,12.27611 31.24765,-0.70986 50.7082,8.99995 l 6.38378,9.54234 -2.33188,-0.50342 -33.73188,-0.34206 z"
         style="fill:#e07676;fill-opacity:1;stroke:none" />
      <path
         sodipodi:nodetypes="ccccccc"
         inkscape:connector-curvature="0"
         id="path3980-0-2-9"
         d="M 53.88481,27.37704 37.70397,16.86842 c 8.09045,5.25432 20.92905,2.28432 19.52307,23.98712 l -6.32121,9.58398 -0.43998,-2.3446 -12.76188,-31.2265 z"
         style="fill:#bf86d5;fill-opacity:1;stroke:none" />
      <path
         sodipodi:nodetypes="ccccccc"
         inkscape:connector-curvature="0"
         id="path3980-0-3-4"
         d="M 22.90206,53.54332 38.87696,42.72434 C 30.8895,48.13392 28.6318,61.11672 9.18485,51.37982 l -6.37043,-9.55128 2.33117,0.5066 33.73137,0.3892 z"
         style="fill:#af5cc8;fill-opacity:1;stroke:none" />
      <path
         sodipodi:nodetypes="ccccccc"
         inkscape:connector-curvature="0"
         id="path3980-0-5-6"
         d="M 52.69739,37.24314 41.82037,21.30763 c 5.43854,7.96776 18.42946,10.17831 8.76313,29.66039 l -9.52807,6.4051 0.4982,-2.3329 0.26674,-33.73259 z"
         style="fill:#4b4b4b;fill-opacity:1;stroke:none" />
      <path
         sodipodi:nodetypes="ccccccc"
         inkscape:connector-curvature="0"
         id="path3980-0-8-0-5"
         d="M 50.60392,18.93477 31.54521,15.93213 C 41.07456,17.4335 51.5885,9.48942 59.14866,29.88154 l -1.86696,11.328 -1.35727,-1.9619 -24.37922,-23.31551 z"
         style="fill:#c1ccf4;fill-opacity:1;stroke:none" />
      <path
         sodipodi:nodetypes="ccccccc"
         inkscape:connector-curvature="0"
         id="path3980-0-89-6-9"
         d="m 14.35302,48.48012 18.83846,-4.1668 c -9.41924,2.0834 -16.30472,13.319 -30.79147,-2.90218 L 0,30.18414 l 1.98013,1.3304 31.21135,12.79878 z"
         style="fill:#ce2e2e;fill-opacity:1;stroke:none" />
      <path
         sodipodi:nodetypes="ccccccc"
         inkscape:connector-curvature="0"
         id="path3980-6-9"
         d="M 27.80364,5.80061 17.32407,22.00024 C 22.56393,13.90039 19.57084,1.06717 41.27625,2.43423 l 9.5953,6.30401 -2.34392,0.44417 -31.20356,12.81783 z"
         style="fill:#8dbdf4;fill-opacity:1;stroke:none" />
      <path
         sodipodi:nodetypes="ccccccc"
         inkscape:connector-curvature="0"
         id="path3980-2-4"
         d="M 32.16496,54.25102 42.60164,38.02364 c -5.21839,8.11378 -2.1914,20.93898 -23.90032,19.62928 l -9.61201,-6.2785 2.34277,-0.4504 31.16956,-12.90038 z"
         style="fill:#de6a49;fill-opacity:1;stroke:none" />
      <path
         sodipodi:nodetypes="ccccccc"
         inkscape:connector-curvature="0"
         id="path3980-08-5"
         d="m 8.23042,41.03774 18.9647,3.54818 C 17.71272,42.81174 6.97531,50.45102 0.00318,29.85044 l 2.19118,-11.26973 1.30044,2.00001 23.70033,24.0052 z"
         style="fill:#8da3f4;fill-opacity:1;stroke:none" />
      <path
         sodipodi:nodetypes="ccccccc"
         inkscape:connector-curvature="0"
         id="path3980-0-3-3-0"
         d="M 18.67525,8.09875 14.91011,27.02153 C 16.79262,17.56006 9.27695,6.73585 29.9559,0 l 11.24396,2.32014 -2.0147,1.2775 -24.27505,23.42389 z"
         style="fill:#c435ef;fill-opacity:1;stroke:none" />
      <path
         sodipodi:nodetypes="ccccccc"
         inkscape:connector-curvature="0"
         id="path3980-0-89-0-4"
         d="m 11.27281,13.90425 3.69791,18.93609 C 13.12175,23.37231 2.06042,16.21003 18.63621,2.1304 L 29.91952,0.00983 28.54024,1.95628 14.9707,32.84024 z"
         style="fill:#b54646;fill-opacity:1;stroke:none" />
      <path
         sodipodi:nodetypes="ccccccc"
         inkscape:connector-curvature="0"
         id="path3980-0-8-0-1-0"
         d="m 41.3496,51.56872 3.52553,-18.96888 c -1.76281,9.4845 5.88918,20.21278 -14.70311,27.20938 l -11.27236,-2.1777 1.99848,-1.3028 23.97699,-23.72888 z"
         style="fill:#465794;fill-opacity:1;stroke:none" />
      <path
         sodipodi:nodetypes="ccccccc"
         inkscape:connector-curvature="0"
         id="path3980-0-8-0-6-0"
         d="M 48.51547,45.36462 44.1559,26.56984 c 2.17974,9.3974 13.48542,16.1674 -2.58663,30.81948 l -11.20197,2.515 1.31017,-1.9936 12.47843,-31.34088 z"
         style="fill:#b3b9d3;fill-opacity:1;stroke:none" />
    </pattern>
    <pattern
       patternUnits="userSpaceOnUse"
       width="59.299873"
       height="59.90428"
       patternTransform="translate(21.100064,968.78502)"
       id="pattern5065">
      <path
         sodipodi:nodetypes="ccccccc"
         inkscape:connector-curvature="0"
         id="path3980-9"
         d="m 6.833105,22.46915 11.04109,15.82233 C 12.353649,30.38024 -0.659414,28.30406 8.805079,8.72305 l 9.461399,-6.50325 -0.47409,2.33805 0.08181,33.73363 z"
         style="fill:#adbfd4;fill-opacity:1;stroke:none" />
      <path
         sodipodi:nodetypes="ccccccc"
         inkscape:connector-curvature="0"
         id="path3980-0-37"
         d="m 5.675286,31.93588 16.234188,10.426 C 13.792349,37.14888 0.969054,40.18428 2.264395,18.47445 l 6.272273,-9.61607 0.451921,2.34243 12.920887,31.16107 z"
         style="fill:#5a5a5a;fill-opacity:1;stroke:none" />
      <path
         sodipodi:nodetypes="ccccccc"
         inkscape:connector-curvature="0"
         id="path3980-0-8-8"
         d="m 44.9687,11.27689 -18.843436,4.1443 c 9.421739,-2.07218 16.32062,-13.29964 30.787959,2.93883 L 59.299873,29.59004 57.321326,28.25718 26.125262,15.4212 z"
         style="fill:#7081c9;fill-opacity:1;stroke:none" />
      <path
         sodipodi:nodetypes="ccccccc"
         inkscape:connector-curvature="0"
         id="path3980-0-89-5"
         d="M 36.987972,6.85542 21.028213,17.69684 c 7.979893,-5.42073 10.21943,-18.4067 29.679979,-8.69689 l 6.383784,9.54234 -2.331875,-0.50342 -33.731888,-0.34206 z"
         style="fill:#e07676;fill-opacity:1;stroke:none" />
      <path
         sodipodi:nodetypes="ccccccc"
         inkscape:connector-curvature="0"
         id="path3980-0-2-5"
         d="M 53.884802,27.37704 37.703967,16.86842 c 8.090451,5.25432 20.929048,2.28432 19.523067,23.98716 l -6.32121,9.5839 -0.43998,-2.3446 -12.761877,-31.22646 z"
         style="fill:#bf86d5;fill-opacity:1;stroke:none" />
      <path
         sodipodi:nodetypes="ccccccc"
         inkscape:connector-curvature="0"
         id="path3980-0-3-1"
         d="m 22.90206,53.54328 15.974901,-10.8189 c -7.987464,5.4095 -10.245164,18.3923 -29.692112,8.6554 l -6.370433,-9.5512 2.331168,0.5066 33.731377,0.3892 z"
         style="fill:#af5cc8;fill-opacity:1;stroke:none" />
      <path
         sodipodi:nodetypes="ccccccc"
         inkscape:connector-curvature="0"
         id="path3980-0-5-2"
         d="M 52.697391,37.24318 41.820366,21.30763 c 5.438541,7.96776 18.42946,10.17835 8.763127,29.66035 l -9.528062,6.4051 0.498199,-2.3329 0.266734,-33.73255 z"
         style="fill:#4b4b4b;fill-opacity:1;stroke:none" />
      <path
         sodipodi:nodetypes="ccccccc"
         inkscape:connector-curvature="0"
         id="path3980-0-8-0-7"
         d="M 50.603913,18.93477 31.545204,15.93213 c 9.529355,1.50137 20.043291,-6.44271 27.60345,13.94941 L 57.281699,41.20958 55.924427,39.24768 31.545202,15.93213 z"
         style="fill:#c1ccf4;fill-opacity:1;stroke:none" />
      <path
         sodipodi:nodetypes="ccccccc"
         inkscape:connector-curvature="0"
         id="path3980-0-89-6-0"
         d="m 14.353016,48.48008 18.838462,-4.1668 c -9.419237,2.0834 -16.30472,13.319 -30.791468,-2.9021 L 0,30.18414 l 1.980126,1.33044 31.211352,12.7987 z"
         style="fill:#ce2e2e;fill-opacity:1;stroke:none" />
      <path
         sodipodi:nodetypes="ccccccc"
         inkscape:connector-curvature="0"
         id="path3980-6-3"
         d="M 27.803636,5.80061 17.324065,22.00024 C 22.563925,13.90039 19.570841,1.06717 41.276251,2.43423 l 9.595295,6.30401 -2.343917,0.44417 -31.203563,12.81783 z"
         style="fill:#8dbdf4;fill-opacity:1;stroke:none" />
      <path
         sodipodi:nodetypes="ccccccc"
         inkscape:connector-curvature="0"
         id="path3980-2-9"
         d="m 32.164959,54.25098 10.436674,-16.2273 c -5.218385,8.1137 -2.191394,20.9389 -23.900313,19.6292 l -9.612017,-6.2785 2.342778,-0.4504 31.169551,-12.9003 z"
         style="fill:#de6a49;fill-opacity:1;stroke:none" />
      <path
         sodipodi:nodetypes="ccccccc"
         inkscape:connector-curvature="0"
         id="path3980-08-2"
         d="m 8.230418,41.03778 18.964703,3.5481 C 17.71272,42.81178 6.975304,50.45098 0.003175,29.85044 l 2.191184,-11.26973 1.300433,2.00001 23.700331,24.00516 z"
         style="fill:#8da3f4;fill-opacity:1;stroke:none" />
      <path
         sodipodi:nodetypes="ccccccc"
         inkscape:connector-curvature="0"
         id="path3980-0-3-3-5"
         d="M 18.675251,8.09875 14.910105,27.02153 C 16.792618,17.56006 9.276948,6.73585 29.955892,0 l 11.243961,2.32014 -2.014698,1.2775 -24.27505,23.42389 z"
         style="fill:#c435ef;fill-opacity:1;stroke:none" />
      <path
         sodipodi:nodetypes="ccccccc"
         inkscape:connector-curvature="0"
         id="path3980-0-89-0-1"
         d="M 11.272805,13.90425 14.97072,32.84038 C 13.12175,23.37231 2.060412,16.21003 18.636208,2.1304 L 29.919517,0.00983 28.540234,1.95628 14.9707,32.84028 z"
         style="fill:#b54646;fill-opacity:1;stroke:none" />
      <path
         sodipodi:nodetypes="ccccccc"
         inkscape:connector-curvature="0"
         id="path3980-0-8-0-1-9"
         d="m 41.349596,51.56868 3.525533,-18.9688 c -1.762816,9.4845 5.889173,20.2127 -14.703108,27.2093 l -11.272365,-2.1777 1.998479,-1.3028 23.976994,-23.7288 z"
         style="fill:#465794;fill-opacity:1;stroke:none" />
      <path
         sodipodi:nodetypes="ccccccc"
         inkscape:connector-curvature="0"
         id="path3980-0-8-0-6-8"
         d="M 48.515471,45.36458 44.1559,26.56984 c 2.17974,9.39744 13.485413,16.16744 -2.586634,30.81944 l -11.201969,2.515 1.310169,-1.9936 12.478433,-31.34084 z"
         style="fill:#b3b9d3;fill-opacity:1;stroke:none" />
    </pattern>
  </defs>
  <sodipodi:namedview
     id="base"
     pagecolor="#ffffff"
     bordercolor="#666666"
     borderopacity="1.0"
     inkscape:pageopacity="0.0"
     inkscape:pageshadow="2"
     inkscape:zoom="1"
     inkscape:cx="48"
     inkscape:cy="48"
     inkscape:document-units="px"
     inkscape:current-layer="layer1"
     showgrid="false"
     inkscape:snap-grids="true"
     inkscape:window-width="1280"
     inkscape:window-height="776"
     inkscape:window-x="0"
     inkscape:window-y="24"
     inkscape:window-maximized="1">
    <inkscape:grid
       type="xygrid"
       id="grid3753"
       empspacing="5"
       visible="true"
       enabled="true"
       snapvisiblegridlinesonly="true" />
  </sodipodi:namedview>
  <metadata
     id="metadata7">
    <rdf:RDF>
      <cc:Work
         rdf:about="">
        <dc:format>image/svg+xml</dc:format>
        <dc:type
           rdf:resource="http://purl.org/dc/dcmitype/StillImage" />
        <dc:title></dc:title>
      </cc:Work>
    </rdf:RDF>
  </metadata>
  <g
     inkscape:label="Layer 1"
     inkscape:groupmode="layer"
     id="layer1"
     transform="translate(0,-956.36218)">
    <rect
       ry="11.259925"
       y="960.36218"
       x="1.9999942"
       height="90.079422"
       width="92"
       id="rect2987-2-3-5-4-3"
       style="opacity:0.25;fill:#000000;fill-opacity:1;stroke:none" />
    <rect
       ry="11.027328"
       y="961.18231"
       x="2.9750538"
       height="88.218651"
       width="89.990417"
       id="rect2987-2-3-5-4"
       style="opacity:0.25;fill:#000000;fill-opacity:1;stroke:none" />
    <rect
       ry="10.008105"
       y="962.18481"
       x="3.975328"
       height="86.213699"
       width="88.024124"
       id="rect2987-2-3-5-8-6"
       style="opacity:0.25;fill:#000000;fill-opacity:1;stroke:none" />
    <rect
       ry="9.543047"
       y="963.62927"
       x="5"
       height="83.766769"
       width="85.999176"
       id="rect2987-2-3"
       style="fill:#e94417;fill-opacity:1;stroke:none" />
    <rect
       ry="8.6297426"
       y="963.36218"
       x="5"
       height="75.749992"
       width="86"
       id="rect2987-2-3-2"
       style="fill:#ff805e;fill-opacity:1;stroke:none" />
    <path
       transform="matrix(2.0635296,0,0,2.0922359,-4.3591607,956.41049)"
       d="M 25,36 19.259749,34.858193 14.393399,31.606602 11.141807,26.740252 10,21 11.141807,15.259749 14.393398,10.393399 19.259748,7.1418072 25,6 l 5.740251,1.1418069 4.86635,3.2515911 3.251592,4.86635 L 40,21 l -1.141807,5.740251 -3.251591,4.86635 -4.86635,3.251592 z"
       inkscape:randomized="0"
       inkscape:rounded="0"
       inkscape:flatsided="true"
       sodipodi:arg2="1.7671459"
       sodipodi:arg1="1.5707963"
       sodipodi:r2="14.711779"
       sodipodi:r1="15"
       sodipodi:cy="21"
       sodipodi:cx="25"
       sodipodi:sides="16"
       id="path3926"
       style="fill:#eecaaa;fill-opacity:1;stroke:#ffffff;stroke-width:1.44381176999999994;stroke-miterlimit:4;stroke-opacity:1;stroke-dasharray:none"
       sodipodi:type="star" />
    <path
       style="fill:#adbfd4;fill-opacity:1;stroke:none"
       d="m 24.380073,992.97261 11.04109,15.82229 c -5.520546,-7.9112 -18.533609,-9.98738 -9.069116,-29.56839 l 9.461399,-6.50325 -0.47409,2.33805 0.08181,33.73359 z"
       id="path3980"
       inkscape:connector-curvature="0"
       sodipodi:nodetypes="ccccccc" />
    <path
       style="fill:#5a5a5a;fill-opacity:1;stroke:none"
       d="m 23.222254,1002.4393 16.234188,10.426 c -8.117125,-5.213 -20.94042,-2.1776 -19.645079,-23.88739 l 6.272273,-9.61607 0.451921,2.34243 12.920887,31.16103 z"
       id="path3980-0"
       inkscape:connector-curvature="0"
       sodipodi:nodetypes="ccccccc" />
    <path
       style="fill:#7081c9;fill-opacity:1;stroke:none"
       d="m 62.515668,981.78035 -18.843436,4.1443 c 9.421739,-2.07218 16.32062,-13.29964 30.787959,2.93883 l 2.38665,11.23002 -1.978547,-1.33286 -31.196064,-12.83598 z"
       id="path3980-0-8"
       inkscape:connector-curvature="0"
       sodipodi:nodetypes="ccccccc" />
    <path
       style="fill:#e07676;fill-opacity:1;stroke:none"
       d="M 54.53494,977.35888 38.575181,988.2003 c 7.979893,-5.42073 10.21943,-18.4067 29.679979,-8.69689 l 6.383784,9.54234 -2.331875,-0.50342 -33.731888,-0.34206 z"
       id="path3980-0-89"
       inkscape:connector-curvature="0"
       sodipodi:nodetypes="ccccccc" />
    <path
       style="fill:#bf86d5;fill-opacity:1;stroke:none"
       d="M 71.43177,997.8805 55.250935,987.37188 c 8.090451,5.25432 20.929048,2.28432 19.523067,23.98712 l -6.32121,9.584 -0.43998,-2.3446 -12.761877,-31.22652 z"
       id="path3980-0-2"
       inkscape:connector-curvature="0"
       sodipodi:nodetypes="ccccccc" />
    <path
       style="fill:#af5cc8;fill-opacity:1;stroke:none"
       d="m 40.449028,1024.0468 15.974901,-10.819 c -7.987464,5.4096 -10.245164,18.3924 -29.692112,8.6555 l -6.370433,-9.5513 2.331168,0.5066 33.731377,0.3892 z"
       id="path3980-0-3"
       inkscape:connector-curvature="0"
       sodipodi:nodetypes="ccccccc" />
    <path
       style="fill:#4b4b4b;fill-opacity:1;stroke:none"
       d="M 70.244359,1007.7466 59.367334,991.81109 c 5.438541,7.96776 18.42946,10.17831 8.763127,29.66041 l -9.528062,6.4051 0.498199,-2.3329 0.266734,-33.73261 z"
       id="path3980-0-5"
       inkscape:connector-curvature="0"
       sodipodi:nodetypes="ccccccc" />
    <path
       style="fill:#c1ccf4;fill-opacity:1;stroke:none"
       d="m 68.150881,989.43823 -19.058709,-3.00264 c 9.529355,1.50137 20.043291,-6.44271 27.60345,13.94941 l -1.866955,11.328 -1.357272,-1.9619 -24.379225,-23.31551 z"
       id="path3980-0-8-0"
       inkscape:connector-curvature="0"
       sodipodi:nodetypes="ccccccc" />
    <path
       style="fill:#ce2e2e;fill-opacity:1;stroke:none"
       d="m 31.899984,1018.9836 18.838462,-4.1668 c -9.419237,2.0834 -16.30472,13.319 -30.791468,-2.9022 l -2.40001,-11.227 1.980126,1.3304 31.211352,12.7988 z"
       id="path3980-0-89-6"
       inkscape:connector-curvature="0"
       sodipodi:nodetypes="ccccccc" />
    <path
       style="fill:#8dbdf4;fill-opacity:1;stroke:none"
       d="M 45.350604,976.30407 34.871033,992.5037 c 5.23986,-8.09985 2.246776,-20.93307 23.952186,-19.56601 l 9.595295,6.30401 -2.343917,0.44417 -31.203563,12.81783 z"
       id="path3980-6"
       inkscape:connector-curvature="0"
       sodipodi:nodetypes="ccccccc" />
    <path
       style="fill:#de6a49;fill-opacity:1;stroke:none"
       d="m 49.711927,1024.7545 10.436674,-16.2274 c -5.218385,8.1138 -2.191394,20.939 -23.900313,19.6293 l -9.612017,-6.2785 2.342778,-0.4504 31.169551,-12.9004 z"
       id="path3980-2"
       inkscape:connector-curvature="0"
       sodipodi:nodetypes="ccccccc" />
    <path
       style="fill:#8da3f4;fill-opacity:1;stroke:none"
       d="m 25.777386,1011.5412 18.964703,3.5482 c -9.482401,-1.7742 -20.219817,5.8651 -27.191946,-14.7355 l 2.191184,-11.26973 1.300433,2.00001 23.700331,24.00522 z"
       id="path3980-08"
       inkscape:connector-curvature="0"
       sodipodi:nodetypes="ccccccc" />
    <path
       style="fill:#c435ef;fill-opacity:1;stroke:none"
       d="m 36.222219,978.60221 -3.765146,18.92278 c 1.882513,-9.46147 -5.633157,-20.28568 15.045787,-27.02153 l 11.243961,2.32014 -2.014698,1.2775 -24.27505,23.42389 z"
       id="path3980-0-3-3"
       inkscape:connector-curvature="0"
       sodipodi:nodetypes="ccccccc" />
    <path
       style="fill:#b54646;fill-opacity:1;stroke:none"
       d="m 28.819773,984.40771 3.697915,18.93609 c -1.84897,-9.46803 -12.910308,-16.63031 3.665488,-30.70994 l 11.283309,-2.12057 -1.379283,1.94645 -13.569534,30.88396 z"
       id="path3980-0-89-0"
       inkscape:connector-curvature="0"
       sodipodi:nodetypes="ccccccc" />
    <path
       style="fill:#465794;fill-opacity:1;stroke:none"
       d="m 58.896564,1022.0722 3.525533,-18.9689 c -1.762816,9.4845 5.889173,20.2128 -14.703108,27.2094 l -11.272365,-2.1777 1.998479,-1.3028 23.976994,-23.7289 z"
       id="path3980-0-8-0-1"
       inkscape:connector-curvature="0"
       sodipodi:nodetypes="ccccccc" />
    <path
       style="fill:#b3b9d3;fill-opacity:1;stroke:none"
       d="m 66.062439,1015.8681 -4.359571,-18.7948 c 2.17974,9.3974 13.485413,16.1674 -2.586634,30.8195 l -11.201969,2.515 1.310169,-1.9936 12.478433,-31.3409 z"
       id="path3980-0-8-0-6"
       inkscape:connector-curvature="0"
       sodipodi:nodetypes="ccccccc" />
    <path
       transform="matrix(2.0100493,0,0,2.0299248,-2.8954845,957.81219)"
       d="M 25,36 19.259749,34.858193 14.393399,31.606602 11.141807,26.740252 10,21 11.141807,15.259749 14.393398,10.393399 19.259748,7.1418072 25,6 l 5.740251,1.1418069 4.86635,3.2515911 3.251592,4.86635 L 40,21 l -1.141807,5.740251 -3.251591,4.86635 -4.86635,3.251592 z"
       inkscape:randomized="0"
       inkscape:rounded="0"
       inkscape:flatsided="true"
       sodipodi:arg2="1.7671459"
       sodipodi:arg1="1.5707963"
       sodipodi:r2="14.711779"
       sodipodi:r1="15"
       sodipodi:cy="21"
       sodipodi:cx="25"
       sodipodi:sides="16"
       id="path3926-7"
       style="fill:none;stroke:#ececec;stroke-width:1.44381176999999994;stroke-miterlimit:4;stroke-opacity:1;stroke-dasharray:none"
       sodipodi:type="star" />
    <rect
       style="fill:url(#pattern5026);stroke:none"
       width="25.977474"
       height="25.963196"
       x="-1008.6425"
       y="94.892456"
       id="rect4308"
       transform="matrix(0.0602424,-0.99818378,0.99818378,0.0602424,0,0)" />
    <rect
       style="fill:url(#pattern5085);stroke:none"
       width="11.424873"
       height="11.154282"
       x="41.975063"
       y="994.66003"
       id="rect5083" />
    <text
       xml:space="preserve"
       style="font-size:57.77309035999999764px;font-style:normal;font-variant:normal;font-weight:normal;font-stretch:normal;line-height:125%;letter-spacing:0px;word-spacing:0px;writing-mode:lr-tb;fill:#ffffff;fill-opacity:1;stroke:url(#radialGradient4225);stroke-width:1.35761404000000008;stroke-opacity:1;font-family:Oxygen;-inkscape-font-specification:Oxygen"
       x="27.272263"
       y="1193.7444"
       id="text4197"
       sodipodi:linespacing="125%"
       transform="scale(1.1727302,0.85271101)"><tspan
         sodipodi:role="line"
         id="tspan4199"
         x="27.272263"
         y="1193.7444"
         style="font-style:normal;font-variant:normal;font-weight:normal;font-stretch:normal;fill:#ffffff;fill-opacity:1;stroke:url(#radialGradient4225);stroke-width:1.35761404000000008;stroke-opacity:1;font-family:VDS;-inkscape-font-specification:VDS">Z</tspan></text>
  </g>
</svg>
